<svg width="37" height="36" viewBox="0 0 37 36" fill="none" xmlns="http://www.w3.org/2000/svg">
<path d="M32.8186 11.0492C32.9076 10.9753 32.9743 10.8781 33.0113 10.7685C33.0483 10.659 33.0541 10.5413 33.0282 10.4285C33.0023 10.3158 32.9456 10.2125 32.8645 10.1301C32.7834 10.0477 32.6809 9.98939 32.5686 9.96172L31.5811 9.71172C31.4913 9.68924 31.4077 9.6471 31.3361 9.58834C31.2646 9.52958 31.2071 9.45567 31.1676 9.37194C31.1281 9.28822 31.1077 9.19677 31.1079 9.10421C31.1081 9.01165 31.1288 8.92029 31.1686 8.83672L31.7186 7.72422C31.7706 7.61642 31.7905 7.49596 31.776 7.37717C31.7615 7.25838 31.7132 7.14625 31.6369 7.0541C31.5605 6.96195 31.4593 6.89366 31.3453 6.85734C31.2313 6.82102 31.1092 6.8182 30.9936 6.84922L28.4936 7.54922C28.4005 7.57639 28.3023 7.58149 28.2068 7.56414C28.1114 7.54678 28.0213 7.50744 27.9436 7.44922C26.8618 6.63783 25.5459 6.19922 24.1936 6.19922C22.536 6.19922 20.9463 6.8577 19.7742 8.0298C18.6021 9.2019 17.9436 10.7916 17.9436 12.4492V12.8992C17.9442 12.976 17.9165 13.0503 17.8657 13.1079C17.815 13.1656 17.7449 13.2025 17.6686 13.2117C14.1561 13.6242 10.7936 11.8367 7.16863 7.66172C7.08988 7.57487 6.98871 7.51142 6.87624 7.47834C6.76377 7.44526 6.64436 7.44383 6.53113 7.47422C6.42913 7.5211 6.34163 7.5946 6.27785 7.68698C6.21406 7.77936 6.17633 7.88722 6.16863 7.99922C5.66795 10.0559 5.87038 12.221 6.74363 14.1492C6.76947 14.2004 6.78075 14.2576 6.77623 14.3147C6.77172 14.3719 6.75159 14.4266 6.71804 14.4731C6.68449 14.5196 6.63882 14.5559 6.58601 14.5781C6.53321 14.6004 6.4753 14.6077 6.41863 14.5992L5.01863 14.3242C4.91921 14.3082 4.81739 14.3165 4.72186 14.3483C4.62632 14.3802 4.53989 14.4346 4.46992 14.507C4.39996 14.5795 4.34852 14.6677 4.32001 14.7643C4.29149 14.8609 4.28673 14.9629 4.30613 15.0617C4.41405 16.021 4.73635 16.9438 5.24915 17.7617C5.76196 18.5796 6.45215 19.2717 7.26863 19.7867C7.32147 19.8123 7.36602 19.8523 7.3972 19.902C7.42838 19.9517 7.44491 20.0093 7.44491 20.068C7.44491 20.1267 7.42838 20.1842 7.3972 20.2339C7.36602 20.2837 7.32147 20.3236 7.26863 20.3492L6.60613 20.6117C6.52567 20.644 6.45281 20.6926 6.39216 20.7545C6.33151 20.8165 6.28441 20.8903 6.25384 20.9715C6.22328 21.0526 6.20992 21.1392 6.21462 21.2257C6.21932 21.3123 6.24197 21.3969 6.28113 21.4742C6.64749 22.2759 7.20283 22.9767 7.8995 23.5166C8.59618 24.0566 9.41341 24.4195 10.2811 24.5742C10.3415 24.5961 10.3936 24.6361 10.4304 24.6886C10.4673 24.7412 10.487 24.8038 10.487 24.868C10.487 24.9321 10.4673 24.9948 10.4304 25.0473C10.3936 25.0999 10.3415 25.1398 10.2811 25.1617C8.58158 25.8646 6.75771 26.2175 4.91863 26.1992C4.75287 26.1661 4.58073 26.2001 4.44008 26.2939C4.29942 26.3877 4.20178 26.5335 4.16863 26.6992C4.13548 26.865 4.16953 27.0371 4.2633 27.1778C4.35707 27.3184 4.50287 27.4161 4.66863 27.4492C7.85306 28.9595 11.3201 29.7816 14.8436 29.8617C17.9429 29.909 20.9871 29.0392 23.5936 27.3617C25.7377 25.9305 27.4943 23.9911 28.7069 21.7163C29.9196 19.4415 30.5505 16.902 30.5436 14.3242V13.2367C30.5444 13.146 30.5649 13.0564 30.6038 12.9744C30.6426 12.8924 30.6989 12.8198 30.7686 12.7617L32.8186 11.0492Z" fill="white"/>
</svg>
