<svg width="36" height="36" viewBox="0 0 36 36" fill="none" xmlns="http://www.w3.org/2000/svg">
<path d="M32.7012 11.998C32.7012 11.998 32.4082 9.92969 31.5059 9.02148C30.3633 7.82617 29.0859 7.82031 28.5 7.75C24.3047 7.44531 18.0059 7.44531 18.0059 7.44531H17.9941C17.9941 7.44531 11.6953 7.44531 7.5 7.75C6.91406 7.82031 5.63672 7.82617 4.49414 9.02148C3.5918 9.92969 3.30469 11.998 3.30469 11.998C3.30469 11.998 3 14.4297 3 16.8555V19.1289C3 21.5547 3.29883 23.9863 3.29883 23.9863C3.29883 23.9863 3.5918 26.0547 4.48828 26.9629C5.63086 28.1582 7.13086 28.1172 7.79883 28.2461C10.2012 28.4746 18 28.5449 18 28.5449C18 28.5449 24.3047 28.5332 28.5 28.2344C29.0859 28.1641 30.3633 28.1582 31.5059 26.9629C32.4082 26.0547 32.7012 23.9863 32.7012 23.9863C32.7012 23.9863 33 21.5605 33 19.1289V16.8555C33 14.4297 32.7012 11.998 32.7012 11.998ZM14.9004 21.8887V13.457L23.0039 17.6875L14.9004 21.8887Z" fill="white"/>
</svg>
